<svg xmlns="http://www.w3.org/2000/svg" viewBox="0 0 22.78199 22.775013" height="70" width="70"><path d="M11.4 0C5.107 0 0 5.097 0 11.388c0 6.29 5.108 11.387 11.4 11.387.172 0 .343-.004.515-.01-.028-.19-.05-.426-.08-.78a25.02 25.02 0 0 0-.3-2.21c-.292-1.498-.302-1.536-.228-1.73.038-.1.385-.53.768-.952l.7-.768.148-.767c.138-.712.13-.81 0-1.387-.077-.34-.138-.7-.138-.81 0-.687-.778.045-.79.744-.003.16-.075.505-.16.767-.155.475-.156.48-.253.24-.053-.13-.15-.24-.217-.24-.12 0-1.06 1.258-1.318 1.754-.188.363-.24.916-.137 1.467.094.51.035 3.63-.07 3.63-.054 0-.53-3.66-.526-4.042.003-.228-.44-.604-1.134-.974-.433-.23-.514-.322-.63-.664-.286-.838-1.08-1.857-1.444-1.857-.18 0-.182.027-.126.4l.057.402-.194-.138c-.228-.16-.516-.195-.516-.057 0 .05.26.608.573 1.226.544 1.07.608 1.14 1.283 1.707 1.072.9 1.014.806.94 1.707-.06.714-.073.776-.253.802-.148.02-.194-.013-.194-.15 0-.098-.058-.182-.115-.182-.102 0-.7-.383-.914-.585a.452.452 0 0 0-.275-.103.33.33 0 0 1-.25-.16c-.26-.48-.6-2.584-.448-2.738.057-.056.054-.13-.022-.218-.064-.074-.177-.312-.252-.527a69.903 69.903 0 0 0-.39-1.09c-.14-.38-.285-.86-.32-1.077-.076-.46-.422-1.09-.7-1.272-.314-.205-.337-.46-.045-.56.2-.07.27-.164.345-.493a4.24 4.24 0 0 0 .09-.756c.005-.42-.125-1.324-.216-1.534-.05-.114-.02-.148.102-.15.276-.003.377-.128.64-.778.328-.804.32-1.004 0-1.17a.548.548 0 0 1-.297-.412c-.05-.247-.03-.325.207-.538.196-.177.298-.217.366-.15.16.16.338.11.688-.205.184-.167.407-.31.504-.31.103 0 .207-.078.252-.195.135-.356.31-.44.607-.286.346.18.49.174.7-.034.117-.12.297-.17.55-.172.2 0 .46-.027.57-.058.196-.052.203-.085.16-.63-.022-.315-.07-.654-.1-.756-.06-.185-.07-.19.434-.057.278.073.887.15 1.352.172l.848.045V2.59c0-.473.028-.528.275-.71.182-.136.334-.18.49-.15.336.066 1.048-.683 1.135-1.192.03-.17.047-.254.092-.297A11.388 11.388 0 0 0 11.4 0zm4.433.894c-.036.062-.07.136-.138.217-.12.144-.218.31-.218.38a.686.686 0 0 1-.103.287c-.133.213-.04.424.23.527.263.1.274.19.045.332-.216.134-.61.74-.61.94 0 .08.07.233.16.332.155.165.163.235.08.996-.09.865-.155 1.01-.48 1.134-.11.042-.194.135-.194.207 0 .152.428.4.7.4.163 0 .183.027.136.264-.03.15-.057.46-.057.687v.412l-.378-.047c-.416-.047-.936.09-1.1.287-.08.094-.076.183 0 .365.082.2.065.294-.08.596-.23.48-.215.616.09 1.02.456.603.288 1.083-.33.964-.6-.115-.67-.1-.7.114a.346.346 0 0 0 .126.32c.15.11.156.126.012.528-.22.616-.204.86.103 1.088.174.13.23.217.17.275-.14.14-.1.31.127.54.262.26.54.267.802.02.164-.155.24-.17.41-.09.252.113.33.37.196.64-.176.354-.77.32-.94-.057-.13-.287-.504-.305-.504-.023 0 .107.054.31.125.446a.92.92 0 0 1 .08.573c-.032.202-.015.35.046.39.17.103.63-.055.677-.23.087-.33.894-.03.894.33 0 .274 1.13-.115 1.364-.47.125-.19.147-.194.287-.07.1.094.227.12.38.08.216-.052.23-.04.23.31 0 .44.234.696.662.7.28.004.287.006.287.424 0 .388.015.43.25.527.14.06.297.15.344.208.144.172-.202.765-.72 1.213-.444.383-.493.403-.677.287-.11-.068-.356-.144-.55-.172-.394-.06-.587.037-.756.378a.437.437 0 0 1-.343.24c-.28.033-.37.288-.286.802.057.354-.027.486-.435.745-.163.103-.165.11 0 .24a.71.71 0 0 0 .367.138c.228 0 .362.06.424.15a11.387 11.387 0 0 0 6.746-10.402A11.39 11.39 0 0 0 15.832.894zm-3.77 8.03a.13.13 0 0 0-.057.012c-.05.03-.3.38-.56.78-.505.764-1.64 1.946-1.87 1.946-.073 0-.225-.11-.33-.252-.25-.338-.39-.325-.608.046-.098.167-.217.298-.263.298-.047 0-.258-.142-.47-.32-.212-.18-.706-.606-1.1-.94-1.282-1.087-1.44-1.14-1.352-.47.12.91.73 2.312 1.215 2.795.264.263.36.3.87.33.314.02.617.09.676.15.085.084-.002.1-.412.08-.51-.024-.523-.02-.55.218-.047.406.35.966.87 1.224.517.258.78.284.94.092.077-.093.132-.11.195-.046.23.232.94-.023 1.42-.515.346-.354.425-.648.24-.928-.132-.202-.17-.216-.618-.16-.31.038-.46.032-.426-.023.03-.048.254-.116.504-.15.25-.033.58-.11.733-.183.37-.17.75-.778.917-1.443.466-1.87.502-2.203.24-2.44a.365.365 0 0 0-.207-.103z" fill="#1673ff"/></svg>
